<svg width="19" height="19" viewBox="0 0 19 19" fill="none" xmlns="http://www.w3.org/2000/svg">
<g opacity="0.5" clip-path="url(#clip0_1_942)">
<path d="M14.2242 6.6882H1.35649C1.16809 6.6882 1.00795 6.75414 0.876066 6.88602C0.744186 7.0179 0.678246 7.17804 0.678246 7.36644V11.7185C0.678246 13.0122 1.00481 14.2116 1.65793 15.3169C2.28593 16.3845 3.13373 17.2323 4.20133 17.8603C5.30661 18.5134 6.50609 18.84 7.79977 18.84C9.09345 18.84 10.2929 18.5134 11.3982 17.8603C12.4658 17.2323 13.3136 16.3845 13.9416 15.3169C14.5822 14.2116 14.9024 13.0122 14.9024 11.7185V7.36644C14.9024 7.17804 14.8365 7.0179 14.7046 6.88602C14.5727 6.75414 14.4126 6.6882 14.2242 6.6882ZM13.546 11.7185C13.546 12.761 13.2822 13.7281 12.7547 14.6198C12.2523 15.499 11.5678 16.1898 10.7011 16.6922C9.80937 17.2198 8.84225 17.4835 7.79977 17.4835C6.75729 17.4835 5.79017 17.2198 4.89841 16.6922C4.03177 16.1898 3.34097 15.499 2.82601 14.6198C2.29849 13.7281 2.03473 12.761 2.03473 11.7185V8.04468H13.546V11.7185ZM16.0705 9.45768H14.2242V10.8142H16.0705C16.4096 10.8142 16.7048 10.9398 16.956 11.191C17.2072 11.4422 17.3328 11.7405 17.3328 12.0859C17.3328 12.4313 17.2072 12.7296 16.956 12.9808C16.7048 13.232 16.4096 13.3576 16.0705 13.3576H13.772V14.714H16.0705C16.5352 14.714 16.9686 14.5947 17.3705 14.3561C17.7724 14.1174 18.0927 13.7972 18.3313 13.3952C18.57 12.9933 18.6893 12.5569 18.6893 12.0859C18.6893 11.6149 18.57 11.1784 18.3313 10.7765C18.0927 10.3746 17.7724 10.0543 17.3705 9.81564C16.9686 9.577 16.5352 9.45768 16.0705 9.45768ZM7.79977 -3.8147e-06C7.61137 -3.8147e-06 7.45123 0.065937 7.31935 0.197817C7.18747 0.329697 7.12153 0.489836 7.12153 0.678236V3.89988C7.12153 4.08828 7.18747 4.24842 7.31935 4.3803C7.45123 4.51218 7.61137 4.57812 7.79977 4.57812C7.98817 4.57812 8.14831 4.51218 8.28019 4.3803C8.41207 4.24842 8.47801 4.08828 8.47801 3.89988V0.678236C8.47801 0.489836 8.41207 0.329697 8.28019 0.197817C8.14831 0.065937 7.98817 -3.8147e-06 7.79977 -3.8147e-06ZM11.0214 1.09272C10.833 1.09272 10.6729 1.15866 10.541 1.29054C10.4091 1.42242 10.3432 1.57628 10.3432 1.75212V4.9926C10.3432 5.181 10.4091 5.34114 10.541 5.47302C10.6729 5.6049 10.833 5.67084 11.0214 5.67084C11.2098 5.67084 11.3699 5.6049 11.5018 5.47302C11.6337 5.34114 11.6996 5.181 11.6996 4.9926V1.75212C11.6996 1.57628 11.6337 1.42242 11.5018 1.29054C11.3699 1.15866 11.2098 1.09272 11.0214 1.09272ZM4.55929 1.09272C4.37089 1.09272 4.21075 1.15866 4.07887 1.29054C3.94699 1.42242 3.88105 1.57628 3.88105 1.75212V4.9926C3.88105 5.181 3.94699 5.34114 4.07887 5.47302C4.21075 5.6049 4.37089 5.67084 4.55929 5.67084C4.74769 5.67084 4.90783 5.6049 5.03971 5.47302C5.17159 5.34114 5.23753 5.181 5.23753 4.9926V1.75212C5.23753 1.57628 5.17159 1.42242 5.03971 1.29054C4.90783 1.15866 4.74769 1.09272 4.55929 1.09272ZM14.5633 17.4835H0.828966C0.653126 17.4835 0.496126 17.5495 0.357966 17.6813C0.219806 17.8132 0.150726 17.9734 0.150726 18.1618C0.150726 18.3502 0.219806 18.5103 0.357966 18.6422C0.496126 18.7741 0.653126 18.84 0.828966 18.84H14.5633C14.7517 18.84 14.9119 18.7741 15.0437 18.6422C15.1756 18.5103 15.2416 18.3502 15.2416 18.1618C15.2416 17.9734 15.1756 17.8132 15.0437 17.6813C14.9119 17.5495 14.7517 17.4835 14.5633 17.4835Z" fill="#3E445A"/>
</g>
<defs>
<clipPath id="clip0_1_942">
<rect width="18.84" height="18.84" fill="white" transform="matrix(1 0 0 -1 0 18.84)"/>
</clipPath>
</defs>
</svg>
