<svg width="19" height="20" viewBox="0 0 19 20" fill="none" xmlns="http://www.w3.org/2000/svg">
<g opacity="0.5" clip-path="url(#clip0_1_947)">
<path d="M18.6516 4.09451C18.3878 3.69258 17.9922 3.47278 17.4647 3.43511C17.1758 3.40999 16.7739 3.46023 16.2589 3.58582H16.2401C16.1898 3.61095 16.1019 3.62979 15.9763 3.64235L15.9198 3.66119C15.8947 3.56071 15.8758 3.35975 15.8633 3.05831L15.8444 2.83223C15.8319 2.29214 15.8005 1.89651 15.7502 1.64531C15.6498 1.23083 15.4739 0.904264 15.2227 0.665625C14.9213 0.376745 14.5256 0.244865 14.0358 0.269985C13.4204 0.295105 12.8238 0.609106 12.246 1.21198C11.7436 1.73951 11.348 2.38007 11.0591 3.13367C10.9335 3.46023 10.8456 3.73027 10.7953 3.94379C10.3432 3.81818 9.84704 3.75539 9.30696 3.75539C8.56592 3.75539 7.85628 3.89355 7.17804 4.16987C6.4998 4.44619 5.89692 4.84811 5.3694 5.37563C4.62836 6.11666 4.13851 7.00215 3.89988 8.03207C3.67379 9.02431 3.71148 10.0103 4.01292 10.9899C3.67379 11.0402 3.30328 11.1469 2.90136 11.3102C2.12264 11.6117 1.46952 12.0136 0.941995 12.516C0.339115 13.0937 0.0251152 13.6903 -4.8441e-06 14.3058C-0.0125648 14.7956 0.119315 15.1913 0.395635 15.4927C0.634275 15.7439 0.960835 15.9197 1.37532 16.0202C1.62652 16.0705 2.02216 16.1019 2.56224 16.1144L2.78832 16.1333C3.08976 16.1458 3.29071 16.1647 3.3912 16.1898L3.37235 16.2463C3.3598 16.3719 3.34096 16.4598 3.31583 16.5101C3.2028 17.0376 3.15883 17.4458 3.18395 17.7347C3.22164 18.2496 3.43516 18.6453 3.82452 18.9216C4.00036 19.0472 4.2233 19.11 4.49334 19.11C4.76338 19.11 5.06796 19.0221 5.40708 18.8462C5.8718 18.6076 6.33652 18.2057 6.80124 17.6405C7.16548 17.2009 7.46378 16.7299 7.69614 16.2275C7.9285 15.7251 8.07608 15.2227 8.13888 14.7203C8.49056 14.8082 8.87992 14.8521 9.30696 14.8521C10.0354 14.8521 10.7388 14.7108 11.417 14.4282C12.0953 14.1456 12.6982 13.7469 13.2257 13.2319C13.8788 12.5662 14.3372 11.8032 14.601 10.9428C14.8648 10.0825 14.9213 9.21899 14.7706 8.35235C15.6874 8.16395 16.5604 7.73691 17.3893 7.07123C17.942 6.60651 18.3376 6.14179 18.5762 5.67706C18.9028 5.07419 18.9279 4.54667 18.6516 4.09451ZM6.2172 16.5854C5.85296 17.1129 5.46988 17.5023 5.06796 17.7535C4.90468 17.8665 4.76023 17.9419 4.63463 17.9796C4.54672 18.0047 4.48391 18.011 4.44624 17.9984C4.3332 17.9231 4.27668 17.7723 4.27668 17.5463C4.28924 17.3955 4.3332 17.1318 4.40856 16.755V16.7173C4.48391 16.4033 4.5216 16.1709 4.5216 16.0202C4.5216 15.7816 4.44624 15.5869 4.29552 15.4362C4.11968 15.2603 3.86847 15.141 3.54191 15.0782C3.35352 15.0405 3.03952 15.0154 2.59992 15.0029C1.83376 15.0029 1.36904 14.9149 1.20576 14.7391C1.1304 14.6637 1.099 14.5319 1.11156 14.3435C1.12412 14.0169 1.34078 13.6589 1.76154 13.2696C2.1823 12.8802 2.69412 12.5725 3.297 12.3464C3.68636 12.1831 4.082 12.0827 4.48391 12.045C4.69743 12.4469 4.9926 12.8425 5.3694 13.2319C5.82156 13.6841 6.38048 14.0671 7.04616 14.3811C7.00848 15.0971 6.73216 15.8318 6.2172 16.5854ZM12.4344 12.4406C12.0199 12.8677 11.5426 13.1911 11.0026 13.4109C10.4625 13.6307 9.89414 13.7406 9.29753 13.7406C8.70094 13.7406 8.1326 13.6307 7.59252 13.4109C7.05244 13.1911 6.57516 12.8677 6.16068 12.4406C5.59548 11.8754 5.2124 11.2097 5.01144 10.4436C4.81048 9.67743 4.81048 8.9144 5.01144 8.15453C5.2124 7.39465 5.59548 6.73211 6.16068 6.16691C6.57516 5.73987 7.05244 5.41645 7.59252 5.19665C8.1326 4.97685 8.70094 4.86695 9.29753 4.86695C9.89414 4.86695 10.4625 4.97685 11.0026 5.19665C11.5426 5.41645 12.0199 5.73987 12.4344 6.16691C12.8489 6.59395 13.1692 7.07437 13.3952 7.60817C13.6213 8.14196 13.7344 8.70403 13.7344 9.29434C13.7344 9.88467 13.6245 10.4499 13.4047 10.9899C13.1849 11.53 12.8614 12.0136 12.4344 12.4406ZM17.5024 5.31911C17.2386 5.72103 16.8555 6.1041 16.3531 6.46835C15.7 6.90795 15.072 7.17799 14.4691 7.27847C14.2054 6.57511 13.7909 5.94083 13.2257 5.37563C12.8238 4.97371 12.3653 4.63459 11.8504 4.35826C11.9132 4.04427 11.9885 3.77423 12.0764 3.54815C12.3151 2.94526 12.6259 2.43658 13.009 2.02211C13.3921 1.60763 13.7469 1.39411 14.0735 1.38155C14.2619 1.36899 14.3938 1.40038 14.4691 1.47575C14.5822 1.56367 14.6575 1.75834 14.6952 2.05979C14.7203 2.24819 14.7329 2.51822 14.7329 2.86991V2.96411C14.758 3.37858 14.7894 3.67375 14.8271 3.84959C14.8899 4.16359 14.9998 4.39909 15.1568 4.55609C15.3138 4.71309 15.5179 4.79158 15.7691 4.79158C15.9198 4.79158 16.1647 4.75077 16.5038 4.66913C16.843 4.58749 17.1004 4.54667 17.2763 4.54667C17.5024 4.53411 17.6531 4.59063 17.7284 4.71623C17.741 4.72879 17.7347 4.78531 17.7096 4.88579C17.6719 5.01138 17.6028 5.15583 17.5024 5.31911Z" fill="#3E445A"/>
</g>
<defs>
<clipPath id="clip0_1_947">
<rect width="18.84" height="18.84" fill="white" transform="matrix(1 0 0 -1 0 19.11)"/>
</clipPath>
</defs>
</svg>
