<svg width="19" height="20" viewBox="0 0 19 20" fill="none" xmlns="http://www.w3.org/2000/svg">
<g opacity="0.5" clip-path="url(#clip0_1_957)">
<path d="M10.004 3.66366C10.6697 3.87718 11.3228 4.4361 11.9634 5.34042C12.516 6.09402 12.9682 7.03602 13.3199 8.16642C13.345 8.29202 13.4078 8.38936 13.5083 8.45844C13.6087 8.52752 13.7218 8.56206 13.8474 8.56206C13.9102 8.56206 13.9604 8.55578 13.9981 8.54322C14.1363 8.50554 14.243 8.41762 14.3184 8.27946C14.3937 8.1413 14.4126 8.00314 14.3749 7.86498C13.9981 6.6341 13.4894 5.57906 12.8489 4.69986C12.0701 3.6197 11.2349 2.9289 10.3431 2.62746C10.205 2.57722 10.07 2.58664 9.93809 2.65572C9.80621 2.7248 9.71515 2.82842 9.66491 2.96658C9.61467 3.10474 9.62409 3.2429 9.69317 3.38106C9.76225 3.51922 9.86587 3.61342 10.004 3.66366ZM17.3705 9.01422C17.3453 8.87606 17.2763 8.75988 17.1632 8.66568C17.0502 8.57148 16.9214 8.5338 16.777 8.55264C16.6326 8.57148 16.5227 8.61858 16.4473 8.69394L16.2966 8.82582C16.1333 7.89638 15.8727 6.9952 15.5147 6.12228C15.1568 5.24936 14.7203 4.44866 14.2053 3.72018C13.5397 2.77818 12.7923 2.05598 11.9634 1.55359C11.1344 1.05118 10.2866 0.799984 9.41999 0.799984C8.55335 0.799984 7.70555 1.05118 6.87659 1.55359C6.04763 2.05598 5.30031 2.77818 4.63463 3.72018C4.11967 4.44866 3.68321 5.24936 3.32525 6.12228C2.96729 6.9952 2.70667 7.89638 2.54339 8.82582L2.39267 8.69394C2.29219 8.60602 2.17601 8.55578 2.04413 8.54322C1.91225 8.53066 1.78979 8.57148 1.67675 8.66568C1.56371 8.75988 1.49463 8.87606 1.46951 9.01422C1.36903 9.75526 1.31879 10.4398 1.31879 11.0678C1.31879 12.3866 1.51975 13.5861 1.92167 14.6662C2.32359 15.7464 2.91391 16.6695 3.69263 17.4357C4.42111 18.1391 5.27833 18.6823 6.26429 19.0654C7.25025 19.4484 8.30529 19.64 9.42941 19.64C10.5535 19.64 11.6086 19.4484 12.5945 19.0654C13.5805 18.6823 14.4314 18.1391 15.1473 17.4357C15.9261 16.6695 16.5164 15.7464 16.9183 14.6662C17.3202 13.5861 17.5212 12.3866 17.5212 11.0678C17.5212 10.4398 17.4709 9.75526 17.3705 9.01422ZM5.52011 4.36074C6.09787 3.56946 6.71959 2.9603 7.38527 2.53326C8.05095 2.10622 8.72919 1.8927 9.41999 1.8927C10.1108 1.8927 10.7922 2.10622 11.4641 2.53326C12.1361 2.9603 12.7547 3.56946 13.3199 4.36074C13.8474 5.10178 14.2838 5.93388 14.6292 6.85704C14.9746 7.7802 15.2039 8.71906 15.3169 9.67362L14.4314 10.4272L12.2837 8.5809C12.1832 8.49298 12.0639 8.44902 11.9257 8.44902C11.7875 8.44902 11.6682 8.49298 11.5677 8.5809L9.41999 10.4272L7.27223 8.5809C7.17175 8.49298 7.05243 8.44902 6.91427 8.44902C6.77611 8.44902 6.65679 8.49298 6.55631 8.5809L4.40855 10.4272L3.52307 9.67362C3.63611 8.71906 3.86533 7.7802 4.21073 6.85704C4.55613 5.93388 4.99259 5.10178 5.52011 4.36074ZM14.3749 16.6444C13.7595 17.2599 13.0247 17.7309 12.1706 18.0574C11.3165 18.384 10.3997 18.5473 9.41999 18.5473C8.44031 18.5473 7.52657 18.384 6.67877 18.0574C5.83097 17.7309 5.09307 17.2599 4.46507 16.6444C3.79939 15.9787 3.29071 15.1718 2.93903 14.2235C2.58735 13.2752 2.41151 12.2233 2.41151 11.0678C2.41151 10.8794 2.42407 10.5842 2.44919 10.1823L4.05059 11.5765C4.15107 11.6644 4.27039 11.7083 4.40855 11.7083C4.54671 11.7083 4.66603 11.6644 4.76651 11.5765L6.91427 9.7113L9.06203 11.5765C9.16251 11.6644 9.28183 11.7083 9.41999 11.7083C9.55815 11.7083 9.67747 11.6644 9.77795 11.5765L11.9257 9.7113L14.0735 11.5765C14.1739 11.6644 14.2933 11.7083 14.4314 11.7083C14.5696 11.7083 14.6889 11.6644 14.7894 11.5765L16.3908 10.1823C16.4159 10.5842 16.4285 10.8794 16.4285 11.0678C16.4285 12.2233 16.2526 13.2752 15.9009 14.2235C15.5493 15.1718 15.0406 15.9787 14.3749 16.6444Z" fill="#3E445A"/>
</g>
<defs>
<clipPath id="clip0_1_957">
<rect width="18.84" height="18.84" fill="white" transform="matrix(1 0 0 -1 0 19.64)"/>
</clipPath>
</defs>
</svg>
