<svg width="19" height="20" viewBox="0 0 19 20" fill="none" xmlns="http://www.w3.org/2000/svg">
<g opacity="0.5" clip-path="url(#clip0_1_952)">
<path d="M17.2009 10.1435C17.0377 9.94243 16.956 9.70994 16.956 9.44604C16.956 9.18215 17.0314 8.94338 17.1821 8.72974C17.4835 8.31504 17.6311 7.8595 17.6248 7.36312C17.6186 6.86674 17.4678 6.42062 17.1727 6.02477C16.8775 5.62892 16.485 5.35559 15.9952 5.20479C15.744 5.12939 15.5399 4.98488 15.3829 4.77124C15.2259 4.55761 15.1537 4.31884 15.1662 4.05494C15.1662 3.53971 15.0155 3.08417 14.7141 2.68832C14.4126 2.29247 14.0264 2.01914 13.5554 1.86834C13.0844 1.71754 12.604 1.73011 12.1141 1.90604C11.8755 1.99401 11.6306 1.99715 11.3794 1.91547C11.1282 1.83378 10.9272 1.68613 10.7765 1.47249C10.4751 1.05779 10.0888 0.778185 9.61783 0.633669C9.14683 0.489151 8.67269 0.492292 8.19541 0.643093C7.71813 0.793894 7.33505 1.08293 7.04617 1.51019C6.89545 1.72383 6.69763 1.87148 6.45271 1.95317C6.20779 2.03485 5.95973 2.03799 5.70853 1.96259C5.21869 1.79923 4.74141 1.79923 4.27669 1.96259C3.81197 2.12596 3.43203 2.40871 3.13687 2.81084C2.84171 3.21298 2.70041 3.67166 2.71297 4.18689C2.72553 4.43823 2.65645 4.67071 2.50573 4.88434C2.35501 5.09798 2.15405 5.24878 1.90285 5.33674C1.41301 5.48754 1.02365 5.76715 0.734773 6.17557C0.445893 6.58399 0.301453 7.03639 0.301453 7.53277C0.301453 8.02915 0.458453 8.48469 0.772453 8.89939C0.935733 9.10046 1.01737 9.3298 1.01737 9.58742C1.01737 9.84504 0.942013 10.0807 0.791293 10.2943C0.577773 10.5959 0.439613 10.9321 0.376813 11.3028C0.314013 11.6735 0.342273 12.0348 0.461593 12.3866C0.580913 12.7385 0.775593 13.0433 1.04563 13.3009C1.31567 13.5585 1.62653 13.7376 1.97821 13.8381C2.21685 13.9135 2.41467 14.058 2.57167 14.2716C2.72867 14.4853 2.80717 14.7178 2.80717 14.9691C2.80717 15.4843 2.95789 15.9399 3.25933 16.3357C3.56077 16.7316 3.94699 17.008 4.41799 17.1651C4.88899 17.3222 5.36941 17.3128 5.85925 17.1368C6.11045 17.0489 6.35851 17.0457 6.60343 17.1274C6.84835 17.2091 7.04617 17.3568 7.19689 17.5704C7.49833 17.9851 7.88455 18.2647 8.35555 18.4092C8.82655 18.5537 9.30069 18.5475 9.77797 18.3904C10.2553 18.2333 10.6383 17.9474 10.9272 17.5327C11.0779 17.3191 11.2789 17.1683 11.5301 17.0803C11.7813 16.9923 12.0262 16.9923 12.2649 17.0803C12.7547 17.2437 13.232 17.2437 13.6967 17.0803C14.1614 16.9169 14.5414 16.6342 14.8365 16.232C15.1317 15.8299 15.273 15.3712 15.2604 14.856C15.2479 14.5921 15.3169 14.3533 15.4677 14.1397C15.6184 13.9261 15.8193 13.7815 16.0705 13.7061C16.5604 13.5428 16.9466 13.26 17.2292 12.8579C17.5118 12.4558 17.6531 12.0065 17.6531 11.5101C17.6531 11.0137 17.5024 10.5582 17.2009 10.1435ZM15.7503 12.6505C15.273 12.8013 14.8836 13.0841 14.5822 13.4988C14.2807 13.9135 14.1363 14.3722 14.1489 14.8748C14.1489 15.1387 14.0766 15.3775 13.9322 15.5911C13.7878 15.8048 13.5931 15.9524 13.3482 16.0341C13.1032 16.1158 12.8552 16.1127 12.604 16.0247C12.1267 15.8739 11.6463 15.8802 11.1627 16.0435C10.6792 16.2069 10.2992 16.4897 10.0229 16.8918C9.87217 17.118 9.67435 17.2688 9.42943 17.3442C9.18451 17.4196 8.93959 17.4196 8.69467 17.3442C8.44975 17.2688 8.25193 17.1243 8.10121 16.9106C7.79977 16.5085 7.40727 16.232 6.92371 16.0812C6.44015 15.9304 5.95973 15.9367 5.48245 16.1001C5.23125 16.1881 4.98319 16.1912 4.73827 16.1095C4.49335 16.0278 4.29553 15.8833 4.14481 15.676C3.99409 15.4686 3.91873 15.233 3.91873 14.9691C3.91873 14.4664 3.76801 14.0109 3.46657 13.6025C3.16513 13.1941 2.77577 12.9207 2.29849 12.7825C2.11009 12.7322 1.94681 12.638 1.80865 12.4997C1.67049 12.3615 1.57001 12.2044 1.50721 12.0285C1.44441 11.8526 1.42871 11.6703 1.46011 11.4818C1.49151 11.2933 1.56373 11.1174 1.67677 10.954C1.97821 10.5519 2.12579 10.0964 2.11951 9.58742C2.11323 9.07847 1.95937 8.62293 1.65793 8.22079C1.49465 8.00716 1.41301 7.77468 1.41301 7.52334C1.41301 7.27201 1.48523 7.03953 1.62967 6.82589C1.77411 6.61226 1.97193 6.46774 2.22313 6.39234C2.70041 6.22898 3.08977 5.93994 3.39121 5.52524C3.69265 5.11054 3.83709 4.65186 3.82453 4.14919C3.82453 3.88529 3.89675 3.64967 4.04119 3.44232C4.18563 3.23497 4.38031 3.09045 4.62523 3.00877C4.87015 2.92708 5.11821 2.93023 5.36941 3.01819C5.84669 3.16899 6.32711 3.16271 6.81067 2.99934C7.29423 2.83598 7.67417 2.54694 7.95049 2.13224C8.10121 1.91861 8.29903 1.77409 8.54395 1.69869C8.78887 1.62329 9.03379 1.62015 9.27871 1.68927C9.52363 1.75838 9.72145 1.89976 9.87217 2.11339C10.1736 2.52809 10.5661 2.81084 11.0497 2.96164C11.5332 3.11244 12.0137 3.10616 12.4909 2.94279C12.7421 2.85483 12.9902 2.85168 13.2351 2.93337C13.48 3.01505 13.6779 3.15643 13.8286 3.35749C13.9793 3.55856 14.0547 3.79104 14.0547 4.05494C14.0547 4.55761 14.2054 5.01315 14.5068 5.42157C14.8083 5.82999 15.1976 6.10959 15.6749 6.26039C15.9261 6.33579 16.1302 6.47717 16.2872 6.68452C16.4442 6.89187 16.5227 7.12435 16.5227 7.38197C16.5227 7.63959 16.4473 7.87521 16.2966 8.08884C15.9952 8.49098 15.8476 8.94652 15.8539 9.45547C15.8602 9.96442 16.014 10.42 16.3155 10.8221C16.4787 11.0357 16.5604 11.2682 16.5604 11.5195C16.5604 11.7709 16.4882 12.0034 16.3437 12.217C16.1993 12.4306 16.0015 12.5751 15.7503 12.6505ZM8.98669 4.90319C8.83597 4.90319 8.70723 4.9566 8.60047 5.06342C8.49371 5.17024 8.44033 5.30533 8.44033 5.46869V5.67604C8.44033 5.82684 8.49371 5.95879 8.60047 6.07189C8.70723 6.18499 8.83597 6.24154 8.98669 6.24154C9.13741 6.24154 9.26615 6.18499 9.37291 6.07189C9.47967 5.95879 9.53305 5.82684 9.53305 5.67604V5.46869C9.53305 5.30533 9.47967 5.17024 9.37291 5.06342C9.26615 4.9566 9.13741 4.90319 8.98669 4.90319ZM8.98669 12.8013C8.83597 12.8013 8.70723 12.8548 8.60047 12.9616C8.49371 13.0684 8.44033 13.1972 8.44033 13.348V13.5742C8.44033 13.725 8.49371 13.8538 8.60047 13.9606C8.70723 14.0674 8.83597 14.1208 8.98669 14.1208C9.13741 14.1208 9.26615 14.0674 9.37291 13.9606C9.47967 13.8538 9.53305 13.725 9.53305 13.5742V13.348C9.53305 13.1972 9.47967 13.0684 9.37291 12.9616C9.26615 12.8548 9.13741 12.8013 8.98669 12.8013ZM11.6997 7.35369C11.8378 7.35369 11.9697 7.30343 12.0953 7.20289L12.246 7.03324C12.3465 6.93271 12.3967 6.8039 12.3967 6.64682C12.3967 6.48974 12.3465 6.35779 12.246 6.25097C12.1455 6.14415 12.0168 6.09074 11.8598 6.09074C11.7028 6.09074 11.5741 6.14729 11.4736 6.26039L11.304 6.41119C11.2035 6.52429 11.1533 6.65624 11.1533 6.80704C11.1533 6.95784 11.2098 7.08665 11.3229 7.19347C11.4359 7.30029 11.5615 7.35369 11.6997 7.35369ZM5.87809 11.84L5.72737 11.9908C5.62689 12.1039 5.57665 12.2358 5.57665 12.3866C5.57665 12.5374 5.62689 12.6663 5.72737 12.7731C5.82785 12.8799 5.95973 12.9333 6.12301 12.9333C6.28629 12.9333 6.41189 12.883 6.49981 12.7825L6.66937 12.6317C6.76985 12.5186 6.82009 12.3866 6.82009 12.2358C6.82009 12.085 6.76985 11.9531 6.66937 11.84C6.56889 11.7269 6.44015 11.6735 6.28315 11.6798C6.12615 11.6861 5.99113 11.7395 5.87809 11.84ZM13.0373 8.97479H12.8301C12.6668 8.97479 12.5318 9.0282 12.425 9.13502C12.3182 9.24184 12.2649 9.37064 12.2649 9.52144C12.2649 9.67225 12.3182 9.80105 12.425 9.90787C12.5318 10.0147 12.6668 10.0681 12.8301 10.0681H13.0373C13.188 10.0681 13.3199 10.0147 13.4329 9.90787C13.546 9.80105 13.6025 9.67225 13.6025 9.52144C13.6025 9.37064 13.546 9.24184 13.4329 9.13502C13.3199 9.0282 13.188 8.97479 13.0373 8.97479ZM5.14333 8.97479H4.93609C4.77281 8.97479 4.63779 9.0282 4.53103 9.13502C4.42427 9.24184 4.37089 9.37064 4.37089 9.52144C4.37089 9.67225 4.42427 9.80105 4.53103 9.90787C4.63779 10.0147 4.77281 10.0681 4.93609 10.0681H5.14333C5.30661 10.0681 5.44163 10.0147 5.54839 9.90787C5.65515 9.80105 5.70853 9.67225 5.70853 9.52144C5.70853 9.37064 5.65515 9.24184 5.54839 9.13502C5.44163 9.0282 5.30661 8.97479 5.14333 8.97479ZM12.0953 11.84C11.9823 11.7395 11.8504 11.6892 11.6997 11.6892C11.5489 11.6892 11.4202 11.7426 11.3134 11.8494C11.2067 11.9562 11.1533 12.085 11.1533 12.2358C11.1533 12.3866 11.2035 12.5186 11.304 12.6317L11.4736 12.7825C11.5615 12.883 11.6871 12.9333 11.8504 12.9333C12.0137 12.9333 12.1455 12.8799 12.246 12.7731C12.3465 12.6663 12.3967 12.5374 12.3967 12.3866C12.3967 12.2358 12.3465 12.1039 12.246 11.9908L12.0953 11.84ZM6.49981 6.26039C6.39933 6.14729 6.27059 6.09074 6.11359 6.09074C5.95659 6.09074 5.82785 6.14415 5.72737 6.25097C5.62689 6.35779 5.57665 6.48974 5.57665 6.64682C5.57665 6.8039 5.62689 6.93271 5.72737 7.03324L5.87809 7.20289C6.00369 7.30343 6.13557 7.35369 6.27373 7.35369C6.41189 7.35369 6.53749 7.30029 6.65053 7.19347C6.76357 7.08665 6.82009 6.95784 6.82009 6.80704C6.82009 6.65624 6.76985 6.52429 6.66937 6.41119L6.49981 6.26039Z" fill="#3E445A"/>
</g>
<defs>
<clipPath id="clip0_1_952">
<rect width="18.84" height="18.85" fill="white" transform="matrix(1 0 0 -1 0 19.38)"/>
</clipPath>
</defs>
</svg>
