<svg width="19" height="19" viewBox="0 0 19 19" fill="none" xmlns="http://www.w3.org/2000/svg">
<g opacity="0.5" clip-path="url(#clip0_1_962)">
<path d="M17.3516 13.3116L15.4299 12.2183L17.0879 11.2381C17.2386 11.1375 17.3359 11.0024 17.3799 10.8328C17.4238 10.6631 17.4019 10.5029 17.3139 10.3521C17.226 10.2013 17.0973 10.1039 16.9277 10.0599C16.7582 10.0159 16.5917 10.0379 16.4285 10.1259L14.1488 11.4643L10.7011 9.485L14.1488 7.4869L16.4285 8.8441C16.5541 8.90694 16.6702 8.93835 16.777 8.93835C16.8838 8.93835 16.9874 8.91008 17.0879 8.85353C17.1883 8.79698 17.2637 8.71844 17.3139 8.6179C17.4019 8.4671 17.4238 8.30688 17.3799 8.13723C17.3359 7.96758 17.2386 7.83249 17.0879 7.73195L15.4299 6.75175L17.3516 5.65845C17.5023 5.57049 17.5997 5.43854 17.6436 5.2626C17.6876 5.08667 17.6656 4.9233 17.5777 4.7725C17.4898 4.6217 17.361 4.52117 17.1915 4.4709C17.0219 4.42064 16.8555 4.43949 16.6922 4.52745L14.7894 5.6396L14.7705 3.7169C14.7705 3.54097 14.7077 3.39017 14.5821 3.2645C14.4565 3.13884 14.3058 3.076 14.13 3.076C13.9541 3.076 13.8034 3.14198 13.6778 3.27393C13.5522 3.40588 13.4894 3.55982 13.4894 3.73575L13.5083 6.37475L10.0605 8.37285V4.3955L12.3779 3.09485C12.5286 2.99432 12.6291 2.85923 12.6793 2.68958C12.7295 2.51993 12.7076 2.3597 12.6134 2.2089C12.5192 2.0581 12.3904 1.95757 12.2271 1.9073C12.0639 1.85704 11.9006 1.87589 11.7373 1.96385L10.0605 2.90635V0.700903C10.0605 0.524969 9.99775 0.37417 9.87215 0.248503C9.74655 0.122837 9.59583 0.0600033 9.41999 0.0600033C9.24415 0.0600033 9.09343 0.122837 8.96783 0.248503C8.84223 0.37417 8.77943 0.524969 8.77943 0.700903V2.90635L7.10267 1.96385C6.95195 1.87589 6.79181 1.85704 6.62225 1.9073C6.45269 1.95757 6.32081 2.0581 6.22661 2.2089C6.13241 2.3597 6.11043 2.51993 6.16067 2.68958C6.21091 2.85923 6.31139 2.99432 6.46211 3.09485L8.77943 4.3955V8.37285L5.33171 6.37475L5.35055 3.73575C5.36311 3.55982 5.30659 3.40588 5.18099 3.27393C5.05539 3.14198 4.90467 3.076 4.72883 3.076H4.70999C4.53415 3.076 4.38343 3.13884 4.25783 3.2645C4.13223 3.39017 4.06943 3.54097 4.06943 3.7169L4.05059 5.6396L2.14775 4.52745C1.98447 4.43949 1.81805 4.42064 1.64849 4.4709C1.47893 4.52117 1.35019 4.6217 1.26227 4.7725C1.17435 4.9233 1.15237 5.08667 1.19633 5.2626C1.24029 5.43854 1.34391 5.57049 1.50719 5.65845L3.41003 6.75175L1.75211 7.73195C1.60139 7.83249 1.50405 7.96758 1.46009 8.13723C1.41613 8.30688 1.43811 8.4671 1.52603 8.6179C1.57627 8.71844 1.65163 8.79698 1.75211 8.85353C1.85259 8.91008 1.95621 8.93835 2.06297 8.93835C2.16973 8.93835 2.28591 8.90694 2.41151 8.8441L4.69115 7.4869L8.13887 9.485L4.69115 11.4831L2.41151 10.1259C2.24823 10.0379 2.08495 10.0159 1.92167 10.0599C1.75839 10.1039 1.62965 10.2013 1.53545 10.3521C1.44125 10.5029 1.41613 10.6631 1.46009 10.8328C1.50405 11.0024 1.60139 11.1375 1.75211 11.2381L3.41003 12.2183L1.50719 13.3116C1.34391 13.3995 1.24029 13.5315 1.19633 13.7074C1.15237 13.8833 1.17435 14.0467 1.26227 14.1975C1.31251 14.298 1.39101 14.3766 1.49777 14.4331C1.60453 14.4897 1.71757 14.518 1.83689 14.518C1.95621 14.518 2.05983 14.4865 2.14775 14.4237L4.05059 13.3304L4.06943 15.2531C4.06943 15.429 4.13223 15.5798 4.25783 15.7055C4.38343 15.8312 4.53415 15.894 4.70999 15.894H4.72883C4.90467 15.894 5.05539 15.828 5.18099 15.6961C5.30659 15.5641 5.36311 15.4102 5.35055 15.2343L5.33171 12.5953L8.77943 10.5972V14.5745L6.46211 15.8752C6.31139 15.9757 6.21091 16.1108 6.16067 16.2804C6.11043 16.4501 6.12927 16.6103 6.21719 16.7611C6.35535 16.9747 6.54375 17.0816 6.78239 17.0816C6.90799 17.0816 7.01475 17.0564 7.10267 17.0062L8.77943 16.0637V18.2691C8.77943 18.445 8.84223 18.5958 8.96783 18.7215C9.09343 18.8472 9.24415 18.91 9.41999 18.91C9.59583 18.91 9.74655 18.8472 9.87215 18.7215C9.99775 18.5958 10.0605 18.445 10.0605 18.2691V16.0637L11.7373 17.0062C11.8252 17.0564 11.932 17.0816 12.0576 17.0816C12.2962 17.0816 12.4846 16.9747 12.6228 16.7611C12.7107 16.6103 12.7295 16.4501 12.6793 16.2804C12.6291 16.1108 12.5286 15.9757 12.3779 15.8752L10.0605 14.5745V10.5972L13.5083 12.5953L13.4894 15.2343C13.4894 15.4102 13.5522 15.5641 13.6778 15.6961C13.8034 15.828 13.9479 15.894 14.1111 15.894H14.13C14.3058 15.894 14.4565 15.8312 14.5821 15.7055C14.7077 15.5798 14.7705 15.429 14.7705 15.2531L14.7894 13.3304L16.6922 14.4237C16.7927 14.4865 16.8995 14.518 17.0125 14.518C17.1255 14.518 17.2354 14.4897 17.3422 14.4331C17.449 14.3766 17.5275 14.298 17.5777 14.1975C17.6656 14.0467 17.6876 13.8833 17.6436 13.7074C17.5997 13.5315 17.5023 13.3995 17.3516 13.3116Z" fill="#3E445A"/>
</g>
<defs>
<clipPath id="clip0_1_962">
<rect width="18.84" height="18.85" fill="white" transform="matrix(1 0 0 -1 0 18.91)"/>
</clipPath>
</defs>
</svg>
