<svg width="19" height="20" viewBox="0 0 19 20" fill="none" xmlns="http://www.w3.org/2000/svg">
<g opacity="0.5" clip-path="url(#clip0_1_967)">
<path d="M13.7344 4.68211C13.1566 4.59419 12.5851 4.60675 12.0199 4.71979C11.4547 4.83283 10.9272 5.05263 10.4374 5.37919C10.7137 4.73863 11.1721 4.16087 11.8127 3.64591C12.0262 3.45751 12.2586 3.28795 12.5098 3.13723C12.6856 3.02419 12.8615 2.92371 13.0373 2.83579L13.2445 2.74159C13.3827 2.67879 13.4832 2.57831 13.546 2.44015C13.6088 2.30199 13.6151 2.16069 13.5648 2.01625C13.5146 1.87181 13.4172 1.76819 13.2728 1.70539C13.1284 1.64259 12.9871 1.64259 12.8489 1.70539C12.56 1.81843 12.246 1.97543 11.9069 2.17639C11.2663 2.57831 10.72 3.04303 10.2678 3.57055C10.2427 3.44495 10.1799 3.24399 10.0794 2.96767C9.81565 2.27687 9.33837 1.64887 8.64757 1.08367C8.29589 0.794792 7.93165 0.562433 7.55485 0.386593C7.42925 0.311234 7.28795 0.304953 7.13095 0.367754C6.97395 0.430553 6.86405 0.531033 6.80125 0.669193L6.78241 0.725714C6.63169 1.15275 6.52493 1.58607 6.46213 2.02567C6.33653 2.86719 6.39933 3.62079 6.65053 4.28647L6.74473 4.47487C6.79497 4.58791 6.83265 4.66955 6.85777 4.71979C6.28001 4.60675 5.69597 4.59419 5.10565 4.68211C4.25157 4.82027 3.49797 5.16253 2.84485 5.70889C2.19173 6.25525 1.71131 6.93349 1.40359 7.74361C1.09587 8.55373 1.00481 9.39211 1.13041 10.2588C1.44441 12.2307 1.86517 13.8446 2.39269 15.1006C3.02069 16.6078 3.79313 17.7006 4.71001 18.3788C5.45105 18.9063 6.26117 19.1701 7.14037 19.1701C7.37901 19.1701 7.63021 19.1512 7.89397 19.1136C8.45917 19.0256 8.96785 18.8121 9.42001 18.473C9.87217 18.8121 10.3871 19.0256 10.9649 19.1136C12.1455 19.302 13.2006 19.057 14.13 18.3788C15.0595 17.7006 15.8319 16.6078 16.4473 15.1006C17.0125 13.7693 17.4333 12.1553 17.7096 10.2588C17.8478 9.39211 17.7599 8.55373 17.4459 7.74361C17.1319 6.93349 16.6483 6.25525 15.9952 5.70889C15.3421 5.16253 14.5885 4.82027 13.7344 4.68211ZM7.64905 1.74307C8.32729 2.20779 8.78573 2.75101 9.02437 3.37273C9.26301 3.99445 9.28813 4.70723 9.09973 5.51107C8.40893 5.04635 7.94735 4.50313 7.71499 3.88141C7.48263 3.25969 7.46065 2.54691 7.64905 1.74307ZM16.5981 10.0892C16.3217 11.9606 15.9167 13.5212 15.3829 14.7709C14.8491 16.0207 14.2117 16.9156 13.4706 17.4556C12.7924 17.9455 12.0137 18.1276 11.1345 18.002C10.5944 17.9141 10.1611 17.688 9.83449 17.3238C9.72145 17.2107 9.58329 17.1542 9.42001 17.1542C9.25673 17.1542 9.11857 17.2107 9.00553 17.3238C8.67897 17.688 8.24565 17.9141 7.70557 18.002C6.82637 18.1276 6.04765 17.9455 5.36941 17.4556C4.62837 16.9156 3.99095 16.0207 3.45715 14.7709C2.92335 13.5212 2.51829 11.9606 2.24197 10.0892C2.14149 9.41095 2.21057 8.76411 2.44921 8.14867C2.68785 7.53323 3.05837 7.01199 3.56077 6.58495C4.06317 6.15791 4.64093 5.88787 5.29405 5.77483C5.54525 5.74971 5.73365 5.73715 5.85925 5.73715C6.63797 5.73715 7.36017 5.98207 8.02585 6.47191C8.44033 6.78591 8.90819 6.94291 9.42943 6.94291C9.95067 6.94291 10.4091 6.78905 10.8048 6.48133C11.2004 6.17361 11.6369 5.96009 12.1141 5.84077C12.5914 5.72145 13.0687 5.69947 13.546 5.77483C14.1991 5.88787 14.7769 6.15791 15.2793 6.58495C15.7817 7.01199 16.1522 7.53323 16.3908 8.14867C16.6295 8.76411 16.6985 9.41095 16.5981 10.0892Z" fill="#3E445A"/>
</g>
<defs>
<clipPath id="clip0_1_967">
<rect width="18.84" height="18.84" fill="white" transform="matrix(1 0 0 -1 0 19.17)"/>
</clipPath>
</defs>
</svg>
