<svg width="19" height="20" viewBox="0 0 19 20" fill="none" xmlns="http://www.w3.org/2000/svg">
<g opacity="0.5" clip-path="url(#clip0_1_972)">
<path d="M18.8212 8.16767C18.8086 8.02944 18.7521 7.91005 18.6516 7.80952C18.5511 7.70899 18.4318 7.65244 18.2936 7.63987H18.2371C17.4333 7.60217 16.6483 7.64615 15.8821 7.77182C14.4 8.03572 13.2382 8.58865 12.3967 9.43062C11.9822 9.84532 11.6306 10.3606 11.3417 10.9763C10.9021 9.20442 10.161 7.79695 9.11856 6.75392C8.49056 6.11302 7.71184 5.58522 6.7824 5.17052C5.85296 4.75582 4.81048 4.46679 3.65496 4.30342C2.61248 4.15262 1.58884 4.10864 0.58404 4.17147H0.54636C0.4082 4.1966 0.29202 4.2563 0.19782 4.35054C0.10362 4.44479 0.05024 4.56104 0.03768 4.69927V4.75582C-0.03768 5.76115 0 6.77905 0.15072 7.80952C0.314 8.95309 0.60602 9.98984 1.02678 10.9198C1.44754 11.8497 1.97506 12.6351 2.60934 13.276C3.24362 13.9169 4.02548 14.4447 4.95492 14.8594C5.88436 15.2741 6.92684 15.5632 8.08236 15.7265C8.72292 15.8271 9.43884 15.8773 10.2301 15.8773H11.7938C12.6605 15.8773 13.4832 15.7768 14.2619 15.5757C15.4174 15.2741 16.3406 14.7715 17.0314 14.0677C17.8729 13.2258 18.4255 12.0633 18.6893 10.5805C18.8149 9.8139 18.8588 9.02849 18.8212 8.22422V8.16767ZM6.27372 9.60027C6.16068 9.48717 6.02566 9.43062 5.86866 9.43062C5.71166 9.43062 5.57664 9.48717 5.4636 9.60027C5.35056 9.71337 5.29404 9.8516 5.29404 10.015C5.29404 10.1783 5.35056 10.3166 5.4636 10.4297L9.75912 14.7275C8.64128 14.6898 7.60508 14.5327 6.65052 14.2562C5.3066 13.8792 4.23272 13.2823 3.42888 12.4655C2.48688 11.523 1.83376 10.2223 1.46952 8.56352C1.24344 7.54562 1.13668 6.4586 1.14924 5.30247C2.27964 5.26477 3.36608 5.3653 4.40856 5.60407C6.06648 5.9685 7.36644 6.62197 8.30844 7.56447C9.12484 8.3813 9.72144 9.46204 10.0982 10.8067C10.3746 11.7617 10.5316 12.7985 10.5692 13.9169L6.27372 9.60027ZM16.2212 13.2572C15.4048 14.074 14.1928 14.5515 12.5851 14.6898L15.1285 12.1639C15.2416 12.0508 15.2981 11.9125 15.2981 11.7492C15.2981 11.5858 15.2416 11.4507 15.1285 11.3439C15.0155 11.2371 14.8805 11.1837 14.7235 11.1837C14.5665 11.1837 14.4314 11.2339 14.3184 11.3345L11.775 13.8792C11.8378 13.2006 11.9634 12.5849 12.1518 12.0319C12.3904 11.3031 12.7421 10.7061 13.2068 10.2412C13.7846 9.6631 14.5759 9.25469 15.5807 9.01592C16.2338 8.85255 16.9372 8.77087 17.6908 8.77087C17.6908 9.52487 17.6091 10.2286 17.4458 10.8821C17.2072 11.8874 16.799 12.6791 16.2212 13.2572Z" fill="#3E445A"/>
</g>
<defs>
<clipPath id="clip0_1_972">
<rect width="18.84" height="18.85" fill="white" transform="matrix(1 0 0 -1 0 19.4399)"/>
</clipPath>
</defs>
</svg>
