<svg width="19" height="20" viewBox="0 0 19 20" fill="none" xmlns="http://www.w3.org/2000/svg">
<g opacity="0.5" clip-path="url(#clip0_1_977)">
<path d="M8.47801 19.6624C7.56113 19.6624 6.68821 19.4897 5.85925 19.1443C5.03029 18.7989 4.28925 18.2996 3.63613 17.6465C2.90765 16.918 2.36129 16.1267 1.99705 15.2726C1.54489 14.2678 1.31881 13.2568 1.31881 12.2394C1.29369 11.0462 1.55745 9.85927 2.11009 8.67863C2.66273 7.49799 3.47285 6.37387 4.54045 5.30627C5.08053 4.75363 5.77133 4.16959 6.61285 3.55415C7.69301 2.77543 8.75433 2.15371 9.79681 1.68899C11.2412 1.06099 12.5474 0.790953 13.7155 0.878874C14.8836 0.966793 15.8758 1.41267 16.6922 2.21651C16.8932 2.41747 17.0596 2.66867 17.1915 2.97011C17.3234 3.27155 17.4144 3.59183 17.4647 3.93095C17.5777 4.79759 17.4019 5.59515 16.9372 6.32363C16.2589 7.41635 15.7879 8.41801 15.5242 9.32861C15.2604 10.2392 15.1788 11.1216 15.2792 11.9756C15.4048 13.0307 15.2981 14.0543 14.959 15.0466C14.6198 16.0388 14.0735 16.9117 13.3199 17.6653C12.6668 18.3059 11.9257 18.7989 11.0968 19.1443C10.2678 19.4897 9.39489 19.6624 8.47801 19.6624ZM13.2822 1.95275C12.3779 1.95275 11.3668 2.20395 10.249 2.70635C9.28185 3.13339 8.28961 3.71743 7.27225 4.45847C6.50609 5.01111 5.85297 5.55119 5.31289 6.07871C4.03177 7.35983 3.17769 8.71003 2.75065 10.1293C2.34873 11.3979 2.31733 12.6476 2.65645 13.8785C2.97045 15.0089 3.55449 16.0074 4.40857 16.874C5.14961 17.6151 6.01625 18.1112 7.00849 18.3624C7.98817 18.6262 8.96157 18.6262 9.92869 18.3624C10.9335 18.1112 11.8064 17.6151 12.5474 16.874C13.1754 16.246 13.6307 15.5144 13.9133 14.6792C14.1959 13.8439 14.287 12.9867 14.1865 12.1075C14.0609 11.1153 14.1457 10.1105 14.4409 9.09311C14.736 8.07575 15.2541 6.96419 15.9952 5.75843C16.2212 5.38163 16.3531 4.98599 16.3908 4.57151C16.4159 4.23239 16.372 3.90583 16.2589 3.59183C16.1584 3.34063 16.0391 3.14595 15.901 3.00779C15.1976 2.30443 14.3247 1.95275 13.2822 1.95275ZM8.47801 17.4581C7.85001 17.4581 7.25341 17.3388 6.68821 17.1001C6.12301 16.8615 5.62689 16.5224 5.19985 16.0828C4.67233 15.5678 4.26413 14.9712 3.97525 14.293C3.68637 13.6147 3.53565 12.9239 3.52309 12.2206C3.51053 11.4042 3.68637 10.5689 4.05061 9.71483C4.49021 8.73515 5.16845 7.78687 6.08533 6.86999C6.65053 6.30479 7.33505 5.73959 8.13889 5.17439C9.01809 4.55895 9.88473 4.06911 10.7388 3.70487C11.7059 3.27783 12.5537 3.06431 13.2822 3.06431C13.7846 3.06431 14.2179 3.16479 14.5822 3.36575C14.8962 3.54159 15.1034 3.80221 15.2039 4.14761C15.3044 4.49301 15.2604 4.82899 15.072 5.15555L15.0532 5.17439C14.2493 6.46807 13.6873 7.68953 13.367 8.83877C13.0467 9.98801 12.9556 11.1216 13.0938 12.2394C13.1817 12.9553 13.1095 13.6493 12.8771 14.3212C12.6448 14.9932 12.2711 15.5866 11.7562 16.1016C11.3166 16.5412 10.8142 16.8772 10.249 17.1095C9.68377 17.3419 9.09345 17.4581 8.47801 17.4581ZM13.2822 4.17587C12.6793 4.17587 11.9508 4.37055 11.0968 4.75991C10.3432 5.08647 9.56445 5.53235 8.76061 6.09755C8.01957 6.61251 7.39157 7.12747 6.87661 7.64243C6.04765 8.47139 5.44477 9.31291 5.06797 10.167C4.76653 10.8452 4.61581 11.5235 4.61581 12.2017C4.62837 12.7669 4.75083 13.3196 4.98319 13.8596C5.21555 14.3997 5.54525 14.8833 5.97229 15.3103C6.31141 15.6494 6.69449 15.9069 7.12153 16.0828C7.54857 16.2586 8.00073 16.3465 8.47801 16.3465C8.95529 16.3465 9.40745 16.2586 9.83449 16.0828C10.2615 15.9069 10.6446 15.6494 10.9837 15.3103C11.3731 14.921 11.6557 14.4688 11.8315 13.9538C12.0074 13.4389 12.0639 12.9114 12.0011 12.3713C11.8504 11.1404 11.9477 9.89067 12.2931 8.62211C12.6385 7.35355 13.2445 6.00963 14.1112 4.59035C14.1488 4.54011 14.1614 4.49301 14.1488 4.44905C14.1363 4.40509 14.1049 4.36427 14.0546 4.32659C13.8662 4.22611 13.6088 4.17587 13.2822 4.17587ZM8.51569 14.6698C8.02585 14.6698 7.60823 14.4971 7.26283 14.1517C6.91743 13.8063 6.74473 13.3886 6.74473 12.8988C6.74473 12.409 6.91743 11.9913 7.26283 11.6459C7.60823 11.3005 8.02585 11.1278 8.51569 11.1278C9.00553 11.1278 9.42315 11.3005 9.76855 11.6459C10.1139 11.9913 10.2866 12.409 10.2866 12.8988C10.2866 13.3886 10.1139 13.8063 9.76855 14.1517C9.42315 14.4971 9.00553 14.6698 8.51569 14.6698ZM8.51569 12.2394C8.33985 12.2394 8.18599 12.3022 8.05411 12.4278C7.92223 12.5534 7.85629 12.7104 7.85629 12.8988C7.85629 13.0872 7.92223 13.2442 8.05411 13.3698C8.18599 13.4954 8.33985 13.5582 8.51569 13.5582C8.69153 13.5582 8.84853 13.4923 8.98669 13.3604C9.12485 13.2285 9.19393 13.0746 9.19393 12.8988C9.19393 12.723 9.12799 12.5691 8.99611 12.4372C8.86423 12.3053 8.70409 12.2394 8.51569 12.2394Z" fill="#3E445A"/>
</g>
<defs>
<clipPath id="clip0_1_977">
<rect width="18.84" height="18.84" fill="white" transform="matrix(1 0 0 -1 0 19.7)"/>
</clipPath>
</defs>
</svg>
